<?xml version="1.0" standalone="no"?>
<!DOCTYPE svg PUBLIC "-//W3C//DTD SVG 20010904//EN"
 "http://www.w3.org/TR/2001/REC-SVG-20010904/DTD/svg10.dtd">
<svg version="1.0" xmlns="http://www.w3.org/2000/svg"
 width="1116.000000pt" height="1280.000000pt" viewBox="0 0 1116.000000 1280.000000"
 preserveAspectRatio="xMidYMid meet">
<metadata>
Created by potrace 1.15, written by Peter Selinger 2001-2017
</metadata>
<g transform="translate(0.000000,1280.000000) scale(0.100000,-0.100000)"
fill="#673ab7" stroke="none">
<path d="M5700 12790 c-348 -24 -739 -85 -895 -140 -60 -21 -186 -62 -280 -90
-93 -28 -182 -60 -197 -71 -15 -11 -76 -40 -135 -65 -60 -25 -128 -57 -153
-72 -25 -14 -66 -33 -91 -42 -25 -9 -104 -50 -175 -92 -71 -42 -140 -79 -154
-83 -14 -4 -43 -24 -65 -45 -45 -42 -75 -60 -102 -60 -10 0 -43 -22 -72 -50
-29 -27 -88 -71 -130 -97 -59 -37 -352 -280 -646 -538 -13 -11 -30 -34 -39
-51 -8 -17 -28 -37 -45 -43 -17 -8 -35 -26 -42 -44 -7 -18 -47 -66 -89 -107
-42 -41 -119 -129 -172 -195 -52 -66 -124 -147 -158 -180 -35 -33 -79 -87 -98
-120 -48 -82 -140 -211 -234 -328 -63 -79 -78 -104 -78 -132 0 -26 -6 -37 -24
-47 -36 -20 -110 -107 -139 -164 -14 -28 -81 -134 -148 -235 -67 -101 -140
-222 -163 -269 -22 -47 -56 -107 -76 -135 -20 -27 -64 -95 -97 -150 -73 -120
-363 -698 -363 -722 0 -9 -22 -60 -49 -112 -50 -98 -123 -285 -182 -468 -24
-73 -38 -103 -49 -103 -12 0 -16 -12 -17 -53 -1 -37 -16 -92 -48 -177 -69
-186 -145 -496 -175 -720 -6 -47 -25 -152 -40 -235 -103 -532 -103 -828 0
-1322 33 -158 78 -221 267 -375 71 -58 156 -135 189 -171 32 -35 74 -72 93
-82 19 -9 84 -65 145 -124 61 -59 125 -116 143 -126 18 -10 39 -32 46 -48 8
-16 46 -50 86 -76 39 -26 101 -74 137 -106 l66 -58 -5 -46 c-3 -25 -17 -82
-32 -126 -37 -114 -48 -284 -49 -725 -1 -366 0 -379 26 -529 41 -229 90 -433
184 -761 77 -269 89 -302 137 -380 28 -47 93 -167 143 -268 55 -107 105 -194
123 -211 18 -17 31 -39 31 -53 0 -14 12 -35 26 -49 15 -13 69 -78 122 -144 52
-66 119 -146 149 -178 29 -32 53 -66 53 -76 0 -10 14 -24 33 -33 17 -9 76 -56
129 -106 72 -66 121 -102 190 -137 51 -27 134 -70 183 -97 156 -85 241 -118
344 -133 200 -31 463 -9 606 48 44 18 147 72 229 121 82 49 180 102 218 118
63 25 74 27 114 17 65 -17 124 -6 284 48 124 42 147 54 191 94 30 29 99 73
178 113 70 37 152 85 181 106 30 22 58 40 64 40 19 0 135 58 194 97 79 53 183
153 257 248 57 74 155 227 170 268 4 9 10 17 14 17 4 0 58 -45 121 -100 70
-62 139 -113 180 -133 l65 -32 554 2 c360 2 566 6 587 13 18 6 69 38 115 70
45 33 98 65 118 71 20 6 149 15 286 19 203 7 265 12 330 29 44 11 94 21 111
21 36 0 216 90 344 171 163 104 189 124 201 151 7 16 27 34 49 44 25 11 43 29
54 52 20 41 121 169 180 228 80 80 259 413 434 809 55 126 82 198 87 240 4 33
13 71 20 85 6 14 18 47 24 75 8 33 26 64 52 92 21 23 91 114 156 200 64 87
129 173 145 191 15 18 46 69 68 113 23 44 79 141 126 215 90 145 153 264 174
329 7 22 23 51 35 65 32 36 40 54 70 161 16 58 36 104 50 119 30 31 44 68 56
145 6 35 25 86 45 122 21 38 34 75 34 97 0 19 12 70 26 113 14 43 37 130 52
193 26 114 26 118 27 515 0 439 1 445 64 540 15 22 33 60 40 85 20 67 47 117
113 203 l59 77 54 213 c131 519 143 749 64 1267 -59 392 -113 654 -166 810
-255 757 -653 1369 -1163 1789 -57 47 -143 122 -190 166 -47 44 -159 145 -250
225 -91 80 -217 192 -280 250 -63 58 -142 123 -174 144 -33 21 -107 85 -165
143 -111 109 -357 299 -476 368 -38 22 -83 52 -99 67 -15 15 -54 37 -85 48
-31 12 -72 34 -91 48 -59 45 -478 230 -695 307 -213 76 -429 128 -488 118 -25
-4 -52 3 -103 25 -55 24 -99 34 -209 47 -168 19 -587 27 -775 15z m2345 -1643
c24 -11 67 -47 106 -90 l66 -72 79 0 c63 -1 97 -8 169 -34 50 -19 155 -51 234
-72 209 -55 228 -63 252 -112 12 -23 47 -73 78 -111 82 -102 111 -148 111
-176 0 -31 47 -130 123 -262 94 -163 123 -236 167 -428 14 -59 31 -105 45
-122 23 -27 46 -130 60 -268 4 -35 19 -105 35 -155 55 -171 89 -458 71 -590
-14 -95 -36 -139 -74 -143 -22 -3 -27 -9 -27 -30 0 -15 -12 -38 -27 -55 -25
-25 -28 -36 -28 -90 1 -60 16 -102 60 -162 13 -18 10 -29 -25 -112 -22 -51
-40 -99 -40 -108 0 -8 -9 -20 -21 -27 -11 -7 -46 -47 -78 -88 -33 -41 -71 -86
-85 -100 -15 -13 -36 -44 -46 -68 -11 -24 -48 -74 -82 -112 -35 -38 -79 -95
-98 -127 -19 -32 -79 -102 -133 -156 -95 -94 -105 -101 -206 -142 -58 -24
-160 -62 -226 -85 -108 -38 -129 -42 -205 -41 -47 1 -143 -5 -215 -14 -178
-21 -208 -20 -253 9 -20 13 -77 38 -126 56 -88 32 -91 32 -170 21 -45 -6 -228
-18 -406 -26 -350 -16 -438 -25 -570 -56 -86 -20 -172 -65 -191 -100 -6 -12
-21 -19 -42 -20 -28 0 -45 -14 -125 -102 -344 -379 -575 -901 -742 -1684 -27
-123 -50 -226 -52 -229 -8 -7 -78 110 -90 150 -6 23 -24 56 -40 73 -15 18 -53
77 -84 130 -92 160 -132 218 -180 264 -25 24 -56 65 -69 90 -15 29 -89 112
-191 214 -126 126 -191 182 -264 230 -54 35 -102 70 -106 78 -10 16 -268 106
-380 133 -105 24 -321 19 -352 -9 -10 -9 -26 -17 -34 -17 -26 0 -147 -40 -223
-72 -73 -32 -166 -84 -376 -212 -80 -48 -147 -82 -185 -91 -157 -40 -314 -153
-388 -278 -32 -56 -48 -72 -100 -101 -34 -19 -75 -38 -91 -42 -16 -4 -51 -24
-78 -45 -28 -20 -81 -54 -119 -75 -78 -43 -145 -97 -303 -243 -97 -90 -110
-99 -113 -79 -7 67 -24 97 -88 157 -64 59 -66 63 -60 99 3 20 20 143 36 272
38 297 54 392 85 499 13 47 47 188 74 312 62 283 77 327 247 729 31 74 73 178
94 230 20 53 55 131 78 175 23 44 82 164 131 267 65 136 100 197 128 225 30
29 42 51 52 97 10 47 19 61 42 75 20 11 29 24 29 42 0 18 24 52 81 115 86 94
102 120 113 171 5 22 31 54 85 105 51 47 101 109 144 174 36 56 86 119 111
140 30 25 46 46 46 61 0 17 10 27 36 38 20 8 76 58 132 116 53 57 140 141 192
187 97 87 572 447 735 556 60 41 96 73 107 95 14 27 23 34 52 37 112 10 180
62 250 192 39 71 40 73 145 131 271 151 643 324 971 454 233 92 610 218 631
212 9 -3 43 3 75 14 115 39 252 71 516 121 147 27 279 55 293 60 14 6 72 10
128 11 56 0 174 9 262 19 197 23 391 22 450 -3z m1800 -3719 c171 -149 365
-316 433 -371 67 -55 122 -105 122 -112 0 -7 -33 -80 -74 -162 -66 -132 -90
-194 -110 -286 l-6 -27 -40 20 c-57 29 -103 72 -176 166 -97 124 -148 164
-229 179 -22 4 -92 33 -156 66 -134 68 -163 75 -359 83 -80 4 -166 12 -192 17
-41 10 -46 13 -38 29 34 64 494 670 508 670 4 0 147 -122 317 -272z m-125
-875 c52 -8 102 -19 110 -23 21 -11 102 -167 134 -258 32 -91 63 -263 72 -404
5 -90 4 -112 -10 -133 -10 -15 -16 -45 -16 -79 0 -81 -26 -267 -54 -382 -30
-123 -60 -203 -117 -314 l-43 -85 -8 70 c-40 357 -62 492 -118 715 -78 313
-206 608 -350 806 -28 38 -50 72 -50 76 0 7 84 26 145 31 64 6 202 -3 305 -20z"/>
</g>
</svg>
